<mxfile host="app.diagrams.net" agent="Mozilla/5.0 (Windows NT 10.0; Win64; x64) AppleWebKit/537.36 (KHTML, like Gecko) Chrome/131.0.0.0 Safari/537.36" version="25.0.3">
  <diagram name="Page-1" id="03018318-947c-dd8e-b7a3-06fadd420f32">
    <mxGraphModel dx="1750" dy="1030" grid="1" gridSize="10" guides="1" tooltips="1" connect="1" arrows="1" fold="1" page="1" pageScale="1" pageWidth="1100" pageHeight="850" background="none" math="0" shadow="0">
      <root>
        <mxCell id="0" />
        <mxCell id="1" parent="0" />
        <mxCell id="677b7b8949515195-1" value="" style="whiteSpace=wrap;html=1;rounded=0;shadow=0;labelBackgroundColor=none;strokeColor=#000000;strokeWidth=1;fillColor=none;fontFamily=Verdana;fontSize=12;fontColor=#000000;align=center;comic=1;" parent="1" vertex="1">
          <mxGeometry x="20" y="40" width="1060" height="1820" as="geometry" />
        </mxCell>
        <mxCell id="677b7b8949515195-2" value="LOGO" style="whiteSpace=wrap;html=1;rounded=0;shadow=0;labelBackgroundColor=none;strokeWidth=1;fontFamily=Verdana;fontSize=28;align=center;comic=1;" parent="1" vertex="1">
          <mxGeometry x="40" y="60" width="190" height="50" as="geometry" />
        </mxCell>
        <mxCell id="677b7b8949515195-4" value="Home" style="text;html=1;points=[];align=left;verticalAlign=top;spacingTop=-4;fontSize=14;fontFamily=Verdana;fontStyle=1" parent="1" vertex="1">
          <mxGeometry x="690" y="75" width="60" height="20" as="geometry" />
        </mxCell>
        <mxCell id="677b7b8949515195-5" value="About" style="text;html=1;points=[];align=left;verticalAlign=top;spacingTop=-4;fontSize=14;fontFamily=Verdana;fontStyle=1" parent="1" vertex="1">
          <mxGeometry x="790" y="75" width="60" height="20" as="geometry" />
        </mxCell>
        <mxCell id="677b7b8949515195-6" value="Contacts" style="text;html=1;points=[];align=left;verticalAlign=top;spacingTop=-4;fontSize=14;fontFamily=Verdana;fontStyle=1" parent="1" vertex="1">
          <mxGeometry x="890" y="75" width="60" height="20" as="geometry" />
        </mxCell>
        <mxCell id="677b7b8949515195-9" value="" style="line;strokeWidth=1;html=1;rounded=0;shadow=0;labelBackgroundColor=none;fillColor=none;fontFamily=Verdana;fontSize=14;fontColor=#000000;align=center;comic=1;" parent="1" vertex="1">
          <mxGeometry x="20.5" y="1800" width="1060" height="10" as="geometry" />
        </mxCell>
        <mxCell id="677b7b8949515195-14" value="&lt;b style=&quot;font-family: &amp;quot;Lucida Console&amp;quot;; font-size: 25px;&quot;&gt;Hello, Readers!&lt;/b&gt;" style="text;html=1;points=[];align=left;verticalAlign=top;spacingTop=-4;fontSize=14;fontFamily=Verdana" parent="1" vertex="1">
          <mxGeometry x="130" y="200" width="110" height="20" as="geometry" />
        </mxCell>
        <mxCell id="677b7b8949515195-15" value="&lt;div style=&quot;text-align: justify&quot;&gt;&lt;span&gt;Lorem ipsum dolor sit amet, consectetur adipisicing elit, sed do eiusmod tempor incididunt ut labore et dolore magna aliqua. Ut enim ad minim veniam, quis nostrud exercitation ullamco laboris nisi ut aliquip ex ea commodo consequat. Duis aute irure dolor in reprehenderit in voluptate velit esse cillum dolore eu fugiat nulla pariatur.&amp;nbsp;&lt;/span&gt;&lt;/div&gt;" style="whiteSpace=wrap;html=1;rounded=0;shadow=0;labelBackgroundColor=none;strokeWidth=1;fillColor=none;fontFamily=Verdana;fontSize=12;align=center;verticalAlign=top;spacing=10;comic=1;" parent="1" vertex="1">
          <mxGeometry x="130" y="247.5" width="300" height="215" as="geometry" />
        </mxCell>
        <mxCell id="677b7b8949515195-16" value="" style="verticalLabelPosition=bottom;shadow=0;dashed=0;align=center;html=1;verticalAlign=top;strokeWidth=1;shape=mxgraph.mockup.graphics.simpleIcon;strokeColor=#999999;rounded=0;labelBackgroundColor=none;fontFamily=Verdana;fontSize=14;fontColor=#000000;comic=1;" parent="1" vertex="1">
          <mxGeometry x="500" y="250" width="480" height="210" as="geometry" />
        </mxCell>
        <mxCell id="rPpi_SbIxY5BabDxYBA6-3" value="" style="endArrow=none;html=1;rounded=0;jumpSize=21;fontStyle=1;fontSize=12;" edge="1" parent="1">
          <mxGeometry width="50" height="50" relative="1" as="geometry">
            <mxPoint x="1000" y="74.31" as="sourcePoint" />
            <mxPoint x="1030" y="74.31" as="targetPoint" />
          </mxGeometry>
        </mxCell>
        <mxCell id="rPpi_SbIxY5BabDxYBA6-4" value="" style="endArrow=none;html=1;rounded=0;jumpSize=21;fontStyle=1;fontSize=12;" edge="1" parent="1">
          <mxGeometry width="50" height="50" relative="1" as="geometry">
            <mxPoint x="1000" y="84.57999999999998" as="sourcePoint" />
            <mxPoint x="1030" y="84.57999999999998" as="targetPoint" />
            <Array as="points">
              <mxPoint x="1010" y="84.28999999999999" />
            </Array>
          </mxGeometry>
        </mxCell>
        <mxCell id="rPpi_SbIxY5BabDxYBA6-5" value="" style="endArrow=none;html=1;rounded=0;jumpSize=21;fontStyle=1;fontSize=12;" edge="1" parent="1">
          <mxGeometry width="50" height="50" relative="1" as="geometry">
            <mxPoint x="1000" y="93.57" as="sourcePoint" />
            <mxPoint x="1030" y="93.57" as="targetPoint" />
          </mxGeometry>
        </mxCell>
        <mxCell id="rPpi_SbIxY5BabDxYBA6-8" value="Sign in" style="strokeWidth=1;shadow=0;dashed=0;align=center;html=1;shape=mxgraph.mockup.text.textBox;fontColor=#666666;align=left;fontSize=17;spacingLeft=4;spacingTop=-3;whiteSpace=wrap;strokeColor=#666666;mainText=" vertex="1" parent="1">
          <mxGeometry x="140" y="415" width="60" height="20" as="geometry" />
        </mxCell>
        <mxCell id="rPpi_SbIxY5BabDxYBA6-9" value="Sign up" style="strokeWidth=1;shadow=0;dashed=0;align=center;html=1;shape=mxgraph.mockup.text.textBox;fontColor=#666666;align=left;fontSize=17;spacingLeft=4;spacingTop=-3;whiteSpace=wrap;strokeColor=#666666;mainText=" vertex="1" parent="1">
          <mxGeometry x="250" y="415" width="70" height="20" as="geometry" />
        </mxCell>
        <mxCell id="rPpi_SbIxY5BabDxYBA6-10" value="&lt;font face=&quot;Lucida Console&quot;&gt;&lt;span style=&quot;font-size: 25px;&quot;&gt;&lt;b&gt;The Most Popular Book in This Weeks!&lt;/b&gt;&lt;/span&gt;&lt;/font&gt;" style="text;html=1;points=[];align=center;verticalAlign=top;spacingTop=-4;fontSize=14;fontFamily=Verdana" vertex="1" parent="1">
          <mxGeometry x="495.5" y="520" width="110" height="20" as="geometry" />
        </mxCell>
        <mxCell id="rPpi_SbIxY5BabDxYBA6-11" value="" style="verticalLabelPosition=bottom;shadow=0;dashed=0;align=center;html=1;verticalAlign=top;strokeWidth=1;shape=mxgraph.mockup.graphics.simpleIcon;strokeColor=#999999;rounded=0;labelBackgroundColor=none;fontFamily=Verdana;fontSize=14;fontColor=#000000;comic=1;" vertex="1" parent="1">
          <mxGeometry x="130" y="580" width="135" height="160" as="geometry" />
        </mxCell>
        <mxCell id="rPpi_SbIxY5BabDxYBA6-12" value="" style="verticalLabelPosition=bottom;shadow=0;dashed=0;align=center;html=1;verticalAlign=top;strokeWidth=1;shape=mxgraph.mockup.graphics.simpleIcon;strokeColor=#999999;rounded=0;labelBackgroundColor=none;fontFamily=Verdana;fontSize=14;fontColor=#000000;comic=1;" vertex="1" parent="1">
          <mxGeometry x="310" y="580" width="135" height="160" as="geometry" />
        </mxCell>
        <mxCell id="rPpi_SbIxY5BabDxYBA6-13" value="" style="verticalLabelPosition=bottom;shadow=0;dashed=0;align=center;html=1;verticalAlign=top;strokeWidth=1;shape=mxgraph.mockup.graphics.simpleIcon;strokeColor=#999999;rounded=0;labelBackgroundColor=none;fontFamily=Verdana;fontSize=14;fontColor=#000000;comic=1;" vertex="1" parent="1">
          <mxGeometry x="483" y="580" width="135" height="160" as="geometry" />
        </mxCell>
        <mxCell id="rPpi_SbIxY5BabDxYBA6-14" value="" style="verticalLabelPosition=bottom;shadow=0;dashed=0;align=center;html=1;verticalAlign=top;strokeWidth=1;shape=mxgraph.mockup.graphics.simpleIcon;strokeColor=#999999;rounded=0;labelBackgroundColor=none;fontFamily=Verdana;fontSize=14;fontColor=#000000;comic=1;" vertex="1" parent="1">
          <mxGeometry x="660" y="580" width="135" height="160" as="geometry" />
        </mxCell>
        <mxCell id="rPpi_SbIxY5BabDxYBA6-15" value="" style="verticalLabelPosition=bottom;shadow=0;dashed=0;align=center;html=1;verticalAlign=top;strokeWidth=1;shape=mxgraph.mockup.graphics.simpleIcon;strokeColor=#999999;rounded=0;labelBackgroundColor=none;fontFamily=Verdana;fontSize=14;fontColor=#000000;comic=1;" vertex="1" parent="1">
          <mxGeometry x="850" y="580" width="135" height="160" as="geometry" />
        </mxCell>
        <mxCell id="rPpi_SbIxY5BabDxYBA6-18" value="" style="verticalLabelPosition=bottom;shadow=0;dashed=0;align=center;html=1;verticalAlign=top;strokeWidth=1;shape=mxgraph.mockup.graphics.simpleIcon;strokeColor=#999999;rounded=0;labelBackgroundColor=none;fontFamily=Verdana;fontSize=14;fontColor=#000000;comic=1;" vertex="1" parent="1">
          <mxGeometry x="125.5" y="890" width="414.5" height="210" as="geometry" />
        </mxCell>
        <mxCell id="rPpi_SbIxY5BabDxYBA6-20" value="" style="verticalLabelPosition=bottom;shadow=0;dashed=0;align=center;html=1;verticalAlign=top;strokeWidth=1;shape=mxgraph.mockup.navigation.scrollBar;strokeColor=#999999;barPos=20;fillColor2=#99ddff;strokeColor2=none;fontColor=default;" vertex="1" parent="1">
          <mxGeometry x="140" y="780" width="850" height="20" as="geometry" />
        </mxCell>
        <mxCell id="rPpi_SbIxY5BabDxYBA6-21" value="&lt;b style=&quot;font-family: &amp;quot;Lucida Console&amp;quot;; font-size: 25px;&quot;&gt;About the Library!&lt;/b&gt;" style="text;html=1;points=[];align=left;verticalAlign=top;spacingTop=-4;fontSize=14;fontFamily=Verdana" vertex="1" parent="1">
          <mxGeometry x="605.5" y="880" width="110" height="20" as="geometry" />
        </mxCell>
        <mxCell id="rPpi_SbIxY5BabDxYBA6-22" value="&lt;div style=&quot;text-align: justify&quot;&gt;&lt;span&gt;Lorem ipsum dolor sit amet, consectetur adipisicing elit, sed do eiusmod tempor incididunt ut labore et dolore magna aliqua. Ut enim ad minim veniam, quis nostrud exercitation ullamco laboris nisi ut aliquip ex ea commodo consequat. Duis aute irure dolor in reprehenderit in voluptate velit esse cillum dolore eu fugiat nulla pariatur.&amp;nbsp;&lt;/span&gt;&lt;/div&gt;" style="whiteSpace=wrap;html=1;rounded=0;shadow=0;labelBackgroundColor=none;strokeWidth=1;fillColor=none;fontFamily=Verdana;fontSize=12;align=center;verticalAlign=top;spacing=10;comic=1;" vertex="1" parent="1">
          <mxGeometry x="605.5" y="920" width="344.5" height="120" as="geometry" />
        </mxCell>
        <mxCell id="rPpi_SbIxY5BabDxYBA6-23" value="&lt;font color=&quot;#0d0d0d&quot;&gt;Baca Selengkapnya&lt;/font&gt;" style="strokeWidth=1;shadow=0;dashed=0;align=center;html=1;shape=mxgraph.mockup.buttons.button;strokeColor=#666666;fontColor=#ffffff;mainText=;buttonStyle=round;fontSize=17;fontStyle=1;fillColor=#FFFFFF;whiteSpace=wrap;" vertex="1" parent="1">
          <mxGeometry x="605.5" y="1060" width="165" height="30" as="geometry" />
        </mxCell>
        <mxCell id="rPpi_SbIxY5BabDxYBA6-24" value="&lt;b style=&quot;font-family: &amp;quot;Lucida Console&amp;quot;; font-size: 25px;&quot;&gt;Our Staff!&lt;/b&gt;" style="text;html=1;points=[];align=left;verticalAlign=top;spacingTop=-4;fontSize=14;fontFamily=Verdana" vertex="1" parent="1">
          <mxGeometry x="480" y="1170" width="110" height="20" as="geometry" />
        </mxCell>
        <mxCell id="rPpi_SbIxY5BabDxYBA6-25" value="" style="verticalLabelPosition=bottom;shadow=0;dashed=0;align=center;html=1;verticalAlign=top;strokeWidth=1;shape=mxgraph.mockup.containers.userMale;strokeColor=#666666;strokeColor2=#008cff;" vertex="1" parent="1">
          <mxGeometry x="160" y="1240" width="120" height="120" as="geometry" />
        </mxCell>
        <mxCell id="rPpi_SbIxY5BabDxYBA6-26" value="" style="verticalLabelPosition=bottom;shadow=0;dashed=0;align=center;html=1;verticalAlign=top;strokeWidth=1;shape=mxgraph.mockup.containers.userFemale;strokeColor=#666666;strokeColor2=#008cff;" vertex="1" parent="1">
          <mxGeometry x="320" y="1240" width="120" height="120" as="geometry" />
        </mxCell>
        <mxCell id="rPpi_SbIxY5BabDxYBA6-27" value="" style="verticalLabelPosition=bottom;shadow=0;dashed=0;align=center;html=1;verticalAlign=top;strokeWidth=1;shape=mxgraph.mockup.containers.userMale;strokeColor=#666666;strokeColor2=#008cff;" vertex="1" parent="1">
          <mxGeometry x="485.5" y="1240" width="120" height="120" as="geometry" />
        </mxCell>
        <mxCell id="rPpi_SbIxY5BabDxYBA6-28" value="" style="verticalLabelPosition=bottom;shadow=0;dashed=0;align=center;html=1;verticalAlign=top;strokeWidth=1;shape=mxgraph.mockup.containers.userFemale;strokeColor=#666666;strokeColor2=#008cff;" vertex="1" parent="1">
          <mxGeometry x="650.5" y="1240" width="120" height="120" as="geometry" />
        </mxCell>
        <mxCell id="rPpi_SbIxY5BabDxYBA6-29" value="" style="verticalLabelPosition=bottom;shadow=0;dashed=0;align=center;html=1;verticalAlign=top;strokeWidth=1;shape=mxgraph.mockup.containers.userMale;strokeColor=#666666;strokeColor2=#008cff;" vertex="1" parent="1">
          <mxGeometry x="810" y="1240" width="125" height="120" as="geometry" />
        </mxCell>
        <mxCell id="rPpi_SbIxY5BabDxYBA6-30" value="&lt;b style=&quot;font-family: &amp;quot;Lucida Console&amp;quot;; font-size: 25px;&quot;&gt;Contacts!&lt;/b&gt;" style="text;html=1;points=[];align=left;verticalAlign=top;spacingTop=-4;fontSize=14;fontFamily=Verdana" vertex="1" parent="1">
          <mxGeometry x="120" y="1440" width="110" height="20" as="geometry" />
        </mxCell>
        <mxCell id="rPpi_SbIxY5BabDxYBA6-53" value="From" style="strokeWidth=1;shadow=0;dashed=0;align=center;html=1;shape=mxgraph.mockup.forms.anchor;align=right;spacingRight=2;fontColor=#666666;" vertex="1" parent="1">
          <mxGeometry x="110" y="1480" width="50" height="18" as="geometry" />
        </mxCell>
        <mxCell id="rPpi_SbIxY5BabDxYBA6-54" value="john@jgraph.com" style="strokeWidth=1;shadow=0;dashed=0;align=center;html=1;shape=mxgraph.mockup.forms.rrect;fillColor=#ffffff;rSize=0;fontColor=#666666;align=left;spacingLeft=3;strokeColor=#999999;" vertex="1" parent="1">
          <mxGeometry x="160" y="1480" width="350" height="18" as="geometry" />
        </mxCell>
        <mxCell id="rPpi_SbIxY5BabDxYBA6-55" value="Subject" style="strokeWidth=1;shadow=0;dashed=0;align=center;html=1;shape=mxgraph.mockup.forms.anchor;align=right;spacingRight=2;fontColor=#666666;" vertex="1" parent="1">
          <mxGeometry x="110" y="1515" width="50" height="18" as="geometry" />
        </mxCell>
        <mxCell id="rPpi_SbIxY5BabDxYBA6-56" value="Greeting" style="strokeWidth=1;shadow=0;dashed=0;align=center;html=1;shape=mxgraph.mockup.forms.rrect;fillColor=#ffffff;rSize=0;fontColor=#666666;align=left;spacingLeft=3;strokeColor=#999999;" vertex="1" parent="1">
          <mxGeometry x="160" y="1515" width="350" height="18" as="geometry" />
        </mxCell>
        <mxCell id="rPpi_SbIxY5BabDxYBA6-57" value="To" style="strokeWidth=1;shadow=0;dashed=0;align=center;html=1;shape=mxgraph.mockup.forms.anchor;align=right;spacingRight=2;fontColor=#666666;" vertex="1" parent="1">
          <mxGeometry x="110" y="1550" width="50" height="18" as="geometry" />
        </mxCell>
        <mxCell id="rPpi_SbIxY5BabDxYBA6-58" value="fred@jgraph.com" style="strokeWidth=1;shadow=0;dashed=0;align=center;html=1;shape=mxgraph.mockup.forms.rrect;fillColor=#ffffff;rSize=0;fontColor=#666666;align=left;spacingLeft=3;strokeColor=#999999;" vertex="1" parent="1">
          <mxGeometry x="160" y="1550" width="350" height="18" as="geometry" />
        </mxCell>
        <mxCell id="rPpi_SbIxY5BabDxYBA6-59" value="CC" style="strokeWidth=1;shadow=0;dashed=0;align=center;html=1;shape=mxgraph.mockup.forms.anchor;align=right;spacingRight=2;fontColor=#666666;" vertex="1" parent="1">
          <mxGeometry x="110" y="1585" width="50" height="18" as="geometry" />
        </mxCell>
        <mxCell id="rPpi_SbIxY5BabDxYBA6-60" value="" style="strokeWidth=1;shadow=0;dashed=0;align=center;html=1;shape=mxgraph.mockup.forms.rrect;fillColor=#ffffff;rSize=0;fontColor=#666666;align=left;spacingLeft=3;strokeColor=#999999;" vertex="1" parent="1">
          <mxGeometry x="160" y="1585" width="350" height="18" as="geometry" />
        </mxCell>
        <mxCell id="rPpi_SbIxY5BabDxYBA6-61" value="BCC" style="strokeWidth=1;shadow=0;dashed=0;align=center;html=1;shape=mxgraph.mockup.forms.anchor;align=right;spacingRight=2;fontColor=#666666;" vertex="1" parent="1">
          <mxGeometry x="110" y="1620" width="50" height="18" as="geometry" />
        </mxCell>
        <mxCell id="rPpi_SbIxY5BabDxYBA6-62" value="" style="strokeWidth=1;shadow=0;dashed=0;align=center;html=1;shape=mxgraph.mockup.forms.rrect;fillColor=#ffffff;rSize=0;fontColor=#666666;align=left;spacingLeft=3;strokeColor=#999999;" vertex="1" parent="1">
          <mxGeometry x="160" y="1620" width="350" height="18" as="geometry" />
        </mxCell>
        <mxCell id="rPpi_SbIxY5BabDxYBA6-63" value="Lorem ipsum dolor sit amet, consectetur adipisicing elit, sed do eiusmod tempor incididunt ut labore et dolore magna aliqua. Ut enim ad minim veniam, quis nostrud exercitation ullamco laboris nisi ut aliquip ex ea commodo consequat. Duis aute irure dolor in reprehenderit in voluptate velit esse cillum dolore eu fugiat nulla pariatur. Excepteur sint occaecat cupidatat non proident, sunt in culpa qui officia deserunt mollit anim id est laborum." style="strokeWidth=1;shadow=0;dashed=0;align=center;html=1;shape=mxgraph.mockup.forms.rrect;fillColor=#ffffff;rSize=0;fontColor=#666666;align=left;spacingLeft=3;strokeColor=#999999;verticalAlign=top;whiteSpace=wrap;" vertex="1" parent="1">
          <mxGeometry x="110" y="1655" width="400" height="125" as="geometry" />
        </mxCell>
        <mxCell id="rPpi_SbIxY5BabDxYBA6-64" value="" style="verticalLabelPosition=bottom;shadow=0;dashed=0;align=center;html=1;verticalAlign=top;strokeWidth=1;shape=mxgraph.mockup.graphics.simpleIcon;strokeColor=#999999;rounded=0;labelBackgroundColor=none;fontFamily=Verdana;fontSize=14;fontColor=#000000;comic=1;" vertex="1" parent="1">
          <mxGeometry x="565.5" y="1480" width="384.5" height="290" as="geometry" />
        </mxCell>
        <mxCell id="rPpi_SbIxY5BabDxYBA6-65" value="" style="line;strokeWidth=1;html=1;rounded=0;shadow=0;labelBackgroundColor=none;fillColor=none;fontFamily=Verdana;fontSize=14;fontColor=#000000;align=center;comic=1;" vertex="1" parent="1">
          <mxGeometry x="20" y="150" width="1060" height="10" as="geometry" />
        </mxCell>
        <mxCell id="rPpi_SbIxY5BabDxYBA6-66" value="&lt;font color=&quot;#0d0d0d&quot;&gt;Copyright 2024 @ Pemrograman Web 1&lt;/font&gt;" style="strokeWidth=1;shadow=0;dashed=0;align=center;html=1;shape=mxgraph.mockup.text.alphanumeric;linkText=;html=1;fontStyle=4;fontSize=17;fontColor=#0000ff;strokeColor=#171717;" vertex="1" parent="1">
          <mxGeometry x="321" y="1810" width="450" height="50" as="geometry" />
        </mxCell>
      </root>
    </mxGraphModel>
  </diagram>
</mxfile>
